Coordinates
version=1
nRows=20
nColumns=34
inDegrees=yes

Units are S.I. units (second, meters, Newtons, ...)
If the header above contains a line with 'inDegrees', this indicates whether rotational values are in degrees (yes) or radians (no).

endheader
time	pelvis_tilt	pelvis_list	pelvis_rotation	pelvis_tx	pelvis_ty	pelvis_tz	hip_flexion_r	hip_adduction_r	hip_rotation_r	knee_angle_r	ankle_angle_r	subtalar_angle_r	mtp_angle_r	hip_flexion_l	hip_adduction_l	hip_rotation_l	knee_angle_l	ankle_angle_l	subtalar_angle_l	mtp_angle_l	lumbar_extension	lumbar_bending	lumbar_rotation	arm_flex_r	arm_add_r	arm_rot_r	elbow_flex_r	pro_sup_r	arm_flex_l	arm_add_l	arm_rot_l	elbow_flex_l	pro_sup_l
      0.00000000	     -6.02923445	      0.77760104	    -81.36174109	      0.03195274	      1.02165701	      0.06914408	      4.38435690	     -5.56166869	      1.85987151	     17.91445023	      6.37075066	     -0.60985943	      0.00000000	     -2.73994068	     -6.18256215	     -9.28408317	     11.59436876	     10.34850240	      2.79950149	      0.00000000	    -10.20339587	      2.89276921	     -7.31172649	     -5.43949537	     -8.31027050	      2.85143370	     86.05763576	    119.74810604	      4.13265002	    -15.05942165	     10.94334502	     98.39936119	    115.94173757
      0.01666670	     -5.83201548	      0.17903259	    -81.79397374	      0.03668460	      1.03623169	      0.07534689	      4.37874999	     -5.62480262	      3.35930150	     19.08114791	      6.82425083	      0.59513948	      0.00000000	     -3.32923761	     -6.10168715	     -7.70479333	     12.58740784	     11.22426832	      2.57234909	      0.00000000	    -10.60810257	      3.60606227	     -8.02531222	     -6.67944145	     -6.99438427	      2.44091635	     88.30192045	    119.69837968	      3.39271765	    -15.84461442	     11.34392665	    100.37338666	    116.21084386
      0.03333330	     -5.80071167	      0.32636683	    -82.45068171	      0.03522395	      1.03944610	      0.07542664	      4.56882866	     -5.73785750	      3.17524911	     19.04271755	      6.75227296	      0.89775462	      0.00000000	     -3.16398737	     -6.24206470	     -7.25329528	     12.96097696	     10.87454634	      2.54704514	      0.00000000	    -10.77490240	      3.12192525	     -8.51208484	     -6.60298716	     -7.33879831	      2.75845196	     91.23147036	    119.74731637	      2.83723122	    -16.24908353	     11.69865389	    100.69458487	    116.41153778
      0.05000000	     -5.73022313	      0.41694058	    -83.15506341	      0.03302907	      1.04143860	      0.07430793	      4.63166147	     -5.84215285	      3.07821504	     18.82524834	      7.08797516	      1.18106887	      0.00000000	     -2.96098652	     -6.28534152	     -6.92440869	     13.40841604	     11.11075946	      2.39234938	      0.00000000	    -10.99461066	      2.69335205	     -8.80363970	     -4.99971236	     -7.92283058	      3.85103219	     92.71121760	    119.74817918	      3.80147065	    -16.43685388	     12.73398158	     99.80474109	    116.64377632
      0.06666670	     -5.73479343	      0.30309241	    -83.87508689	      0.03152119	      1.04187057	      0.07307282	      4.82654469	     -5.92776293	      3.04006608	     19.01772493	      7.45032551	      1.44655025	      0.00000000	     -2.88846521	     -6.40559379	     -6.74719777	     13.99236873	     11.56175998	      2.09753196	      0.00000000	    -11.23542583	      2.52552117	     -9.19564974	     -3.20760707	     -8.40639104	      5.07598760	     93.50122762	    119.74817918	      5.61819155	    -16.57050391	     14.08300911	     98.87520307	    116.91644832
      0.08333330	     -5.77029231	      0.23110688	    -84.98297558	      0.02871044	      1.04198772	      0.07060057	      5.27840599	     -5.93442977	      3.07376235	     19.49398950	      7.74861673	      1.70892323	      0.00000000	     -2.56038254	     -6.60804219	     -6.71967718	     14.94169899	     12.06242950	      1.56091602	      0.00000000	    -11.72994147	      2.41250444	    -10.07740257	     -1.78771753	     -8.54302549	      6.17265831	     94.54523151	    119.74817918	      7.53636652	    -16.72328809	     15.36997637	     98.27399913	    117.21156011
      0.10000000	     -5.82326096	      0.28236980	    -86.42795682	      0.02460859	      1.04135233	      0.06816105	      5.79023132	     -5.90019040	      3.13442236	     19.74340450	      7.95774465	      2.07851083	      0.00000000	     -2.12130435	     -6.84091200	     -6.64814229	     15.89534301	     12.60250973	      0.97245423	      0.00000000	    -11.93151136	      2.36494344	    -10.74182238	     -0.88124483	     -8.71571022	      6.96320044	     95.43848806	    119.74817918	      9.24659912	    -16.91586517	     16.55615852	     98.45198813	    117.54629421
      0.11666670	     -5.93781901	      0.87671870	    -88.14499531	      0.02165288	      1.03949218	      0.06542694	      7.20669962	     -5.95362308	      3.20250666	     20.37215620	      8.33743015	      2.90684883	      0.00000000	     -1.15743549	     -6.99298186	     -6.67842299	     16.81028687	     13.09426164	      0.06989690	      0.00000000	    -11.45377048	      2.24204298	    -10.80897460	     -0.17742056	     -8.95895152	      7.17575042	     96.54151036	    119.74817918	     11.43478236	    -17.00031368	     18.49271549	     98.36587847	    118.66256477
      0.13333330	     -5.99096410	      0.92715333	    -89.41480254	      0.02086965	      1.03829991	      0.06393499	      7.56926318	     -5.99264179	      3.38970895	     20.41364071	      8.29345604	      3.14869244	      0.00000000	     -1.23632252	     -7.01969765	     -6.78870218	     16.94886745	     13.52072969	     -0.24930783	      0.00000000	    -11.56028029	      2.38708038	    -11.73059742	      1.01699537	     -9.83595039	      8.83785844	     97.33693367	    119.74817918	     13.01055801	    -17.66786418	     20.65521759	     98.88284701	    119.04450295
      0.15000000	     -6.02475844	      1.23716041	    -91.25299441	      0.02046991	      1.03662374	      0.06203042	      8.92882578	     -6.06527582	      4.02953057	     21.50480065	      8.52334761	      3.51508942	      0.00000000	     -1.38340021	     -6.87129463	     -7.59550582	     16.62180627	     13.61170473	     -0.86657950	      0.00000000	    -11.58285333	      2.43345160	    -12.33932250	      1.94744151	    -10.56459196	     10.60567332	     97.54284178	    119.74817918	     16.52590609	    -18.20968086	     24.31096585	     98.56873215	    119.74817918
      0.16666670	     -6.26073902	      1.29242822	    -92.74116987	      0.02114580	      1.03473490	      0.06110765	      9.99361361	     -5.96143480	      4.36151149	     22.74983426	      8.58741927	      3.48488156	      0.00000000	     -1.78991842	     -6.92813939	     -8.14862271	     16.40136072	     14.00985737	     -1.36833340	      0.00000000	    -11.79952235	      2.99493806	    -13.71772232	      3.40612272	    -11.23143946	     13.16702149	     96.78024269	    119.74817918	     20.29821846	    -18.54028471	     27.65154744	     98.88359655	    119.74817918
      0.18333330	     -6.42330865	      1.55493309	    -94.30056885	      0.02157589	      1.03326826	      0.06116335	     10.62703652	     -5.87555660	      4.66341100	     22.79111201	      8.60421711	      3.65674182	      0.00000000	     -2.14551611	     -6.87856087	     -8.78885963	     15.97624986	     14.05840289	     -1.65051502	      0.00000000	    -11.48375671	      3.33447840	    -14.92378079	      4.63840851	    -11.93398037	     15.50957717	     96.00693619	    119.74817918	     24.01241005	    -18.63833695	     31.94956415	     99.84131705	    119.74817918
      0.20000000	     -6.15851629	      1.49413067	    -95.99705447	      0.02147451	      1.03248900	      0.06227830	     10.75002554	     -6.14477748	      5.65285682	     22.36676779	      8.64158101	      3.90547940	      0.00000000	     -2.98007655	     -6.35544040	    -10.08055527	     15.30488341	     13.85474651	     -1.55985060	      0.00000000	    -11.41341302	      3.02845687	    -14.32938486	      5.44461060	    -12.92171095	     16.75680711	     95.87193584	    119.74817918	     29.02335114	    -18.73486370	     37.94963397	     99.99780524	    119.74817918
      0.21666670	     -6.33452575	      1.65497407	    -97.22067786	      0.02175605	      1.03145354	      0.06437755	     10.84289419	     -6.02568772	      5.96114213	     21.74959665	      8.51119098	      4.24086783	      0.00000000	     -3.39274770	     -6.34245721	    -10.71702883	     14.91608489	     13.89343468	     -1.70598782	      0.00000000	    -11.06217768	      3.30579673	    -15.17368026	      7.78213055	    -14.08324251	     20.10262085	     94.95446206	    119.74817918	     33.19490077	    -18.70416186	     42.87027515	    100.10627237	    119.74817918
      0.23333330	     -6.50547837	      1.60109881	    -98.84986132	      0.02095442	      1.03042816	      0.06655286	     10.84844139	     -5.94839622	      6.33941309	     21.28712655	      8.46276514	      4.46550193	      0.00000000	     -4.04621320	     -6.28998861	    -11.47177227	     14.69993647	     14.00361064	     -2.00967068	      0.00000000	    -11.07819964	      3.65473838	    -16.21034601	     10.35585855	    -13.98175622	     21.45695625	     93.97160044	    119.74817918	     36.19342538	    -17.52071272	     45.94178614	     98.38407742	    119.74817918
      0.25000000	     -6.70993818	      1.40237639	   -100.43038076	      0.02138901	      1.02909607	      0.06862355	     11.05096037	     -5.93603106	      6.78972655	     21.51557727	      8.32327504	      4.83605818	      0.00000000	     -4.58668867	     -6.31201751	    -12.08144981	     14.96508289	     14.53902847	     -2.66163036	      0.00000000	    -11.18477655	      4.86780068	    -16.74082998	     13.07282955	    -13.14301080	     21.65038037	     93.84811191	    119.74817918	     39.16098989	    -16.98457962	     47.89222452	     97.53330167	    119.74817918
      0.26666670	     -6.82343308	      1.35800161	   -102.29504097	      0.02200875	      1.02817209	      0.06741867	     11.40864290	     -5.80635933	      7.93350228	     21.33913013	      7.99210522	      4.77596677	      0.00000000	     -5.33672989	     -6.17146962	    -13.24555432	     14.52283204	     14.46040949	     -3.25589174	      0.00000000	    -11.53953936	      5.62516676	    -16.37796160	     12.76826242	    -12.30285518	     18.41947286	     94.27211172	    119.74817918	     41.15979882	    -16.28292086	     48.50907115	     97.35707734	    119.74817918
      0.28333330	     -7.12785738	      1.53232886	   -104.51743920	      0.02109913	      1.02801482	      0.06495807	     12.14246801	     -5.39524758	      8.29368728	     21.59544376	      7.58544172	      4.87075425	      0.00000000	     -5.70789780	     -6.10182513	    -14.42676702	     14.33942299	     14.54325818	     -4.18056624	      0.00000000	    -11.73949791	      6.66093012	    -20.08977052	      9.21539019	    -11.42770854	     14.89654891	     96.65771074	    119.71042904	     40.42136467	    -18.19033389	     46.42446045	     99.05371508	    119.74817918
      0.30000000	     -7.47997158	      2.24530527	   -107.84230181	      0.01861836	      1.02720703	      0.06046561	     13.75114480	     -4.54871270	      9.24385631	     21.91159508	      6.77745805	      4.51705802	      0.00000000	     -5.79353912	     -5.90800466	    -15.87881079	     13.97623814	     14.53249363	     -5.72912070	      0.00000000	    -11.46632081	      8.01016431	    -23.43005211	      4.51827727	    -11.29243191	     10.10259784	     99.80088716	    119.74817918	     39.29559308	    -19.44627151	     43.38623398	    100.23157872	    119.74817918
      0.31666670	     -7.55241975	      2.80402367	   -111.63411997	      0.01571414	      1.02726894	      0.05513302	     15.25879156	     -3.68823202	      9.95980988	     22.20640484	      6.02369278	      3.99990568	      0.00000000	     -6.16887498	     -5.29018832	    -17.77057335	     13.28161394	     14.25790899	     -7.00584097	      0.00000000	    -11.35000024	      9.11107317	    -26.25908656	      0.23899898	    -11.49602703	      3.76225450	    101.95255523	    119.74817918	     38.49575471	    -20.76181080	     40.50654994	    102.14463533	    119.74817918
